<svg width="180" height="46" viewBox="0 0 180 46" fill="none" xmlns="http://www.w3.org/2000/svg">
<path d="M169.343 37.4221C167.176 37.4221 165.303 36.9618 163.722 36.0414C162.151 35.1114 160.937 33.8189 160.082 32.1639C159.226 30.4995 158.799 28.5702 158.799 26.3758C158.799 24.1629 159.226 22.2288 160.082 20.5738C160.937 18.9094 162.151 17.617 163.722 16.6965C165.303 15.7667 167.176 15.3018 169.343 15.3018C171.509 15.3018 173.378 15.7667 174.95 16.6965C176.53 17.617 177.748 18.9094 178.604 20.5738C179.459 22.2288 179.887 24.1629 179.887 26.3758C179.887 28.5702 179.459 30.4995 178.604 32.1639C177.748 33.8189 176.53 35.1114 174.95 36.0414C173.378 36.9618 171.509 37.4221 169.343 37.4221ZM169.371 32.8194C170.356 32.8194 171.179 32.5404 171.839 31.9825C172.499 31.4154 172.997 30.6436 173.332 29.6673C173.676 28.691 173.848 27.5799 173.848 26.334C173.848 25.088 173.676 23.9769 173.332 23.0006C172.997 22.0243 172.499 21.2526 171.839 20.6854C171.179 20.1182 170.356 19.8346 169.371 19.8346C168.376 19.8346 167.539 20.1182 166.86 20.6854C166.191 21.2526 165.684 22.0243 165.34 23.0006C165.005 23.9769 164.838 25.088 164.838 26.334C164.838 27.5799 165.005 28.691 165.34 29.6673C165.684 30.6436 166.191 31.4154 166.86 31.9825C167.539 32.5404 168.376 32.8194 169.371 32.8194Z" fill="#1C1C1E"/>
<path d="M157.313 15.5801L149.823 37.0029H143.128L135.639 15.5801H141.915L146.364 30.908H146.587L151.022 15.5801H157.313Z" fill="#1C1C1E"/>
<path d="M134.301 15.5801L126.811 37.0029H120.117L112.627 15.5801H118.903L123.352 30.908H123.575L128.011 15.5801H134.301Z" fill="#1C1C1E"/>
<path d="M98.4216 37.4081C97.0546 37.4081 95.8366 37.1709 94.7674 36.6967C93.6982 36.2131 92.8521 35.5019 92.2291 34.5628C91.6154 33.6144 91.3086 32.4335 91.3086 31.0202C91.3086 29.8301 91.527 28.8305 91.9639 28.0216C92.4008 27.2126 92.9961 26.5618 93.7492 26.069C94.5022 25.5762 95.3577 25.2042 96.3155 24.9532C97.2824 24.7021 98.2959 24.5255 99.3558 24.4232C100.602 24.293 101.606 24.1722 102.368 24.0606C103.131 23.9397 103.684 23.7631 104.028 23.5306C104.372 23.2981 104.544 22.9541 104.544 22.4985V22.4148C104.544 21.5315 104.265 20.8481 103.707 20.3646C103.159 19.8811 102.378 19.6393 101.364 19.6393C100.295 19.6393 99.4442 19.8765 98.8118 20.3506C98.1799 20.8155 97.7613 21.4013 97.5569 22.108L92.0617 21.6617C92.3405 20.3599 92.8891 19.2349 93.7075 18.2865C94.5256 17.3288 95.5808 16.5942 96.8735 16.0828C98.1752 15.5621 99.6813 15.3018 101.392 15.3018C102.582 15.3018 103.721 15.4412 104.809 15.7202C105.907 15.9991 106.878 16.4315 107.724 17.0173C108.58 17.6031 109.254 18.3562 109.747 19.2767C110.239 20.1879 110.486 21.2805 110.486 22.5543V37.0035H104.851V34.0328H104.684C104.34 34.7022 103.879 35.2927 103.303 35.8041C102.727 36.3061 102.034 36.7013 101.225 36.9895C100.416 37.2687 99.4815 37.4081 98.4216 37.4081ZM100.123 33.3075C100.997 33.3075 101.769 33.1355 102.438 32.7915C103.108 32.4382 103.633 31.964 104.014 31.3689C104.395 30.7738 104.586 30.0997 104.586 29.3465V27.0731C104.4 27.194 104.145 27.3056 103.819 27.4079C103.503 27.5009 103.145 27.5892 102.745 27.6729C102.345 27.7473 101.945 27.817 101.546 27.8821C101.146 27.9379 100.783 27.989 100.458 28.0355C99.7603 28.1378 99.1513 28.3005 98.6308 28.5237C98.1102 28.7468 97.7056 29.049 97.4175 29.4302C97.1289 29.8021 96.9849 30.267 96.9849 30.8249C96.9849 31.6339 97.2777 32.2522 97.8637 32.6799C98.4587 33.0983 99.2117 33.3075 100.123 33.3075Z" fill="#1C1C1E"/>
<path d="M76.8555 37.0032V15.5803H82.6155V19.3181H82.8389C83.2295 17.9885 83.8848 16.9843 84.8053 16.3055C85.7258 15.6174 86.786 15.2734 87.9853 15.2734C88.2828 15.2734 88.6036 15.292 88.9478 15.3292C89.2916 15.3664 89.5938 15.4175 89.8543 15.4826V20.7547C89.5751 20.671 89.1892 20.5966 88.6967 20.5315C88.2037 20.4664 87.7528 20.4339 87.3436 20.4339C86.4698 20.4339 85.6888 20.6245 85.0007 21.0057C84.3217 21.3776 83.7824 21.8983 83.3829 22.5678C82.9924 23.2372 82.7969 24.009 82.7969 24.883V37.0032H76.8555Z" fill="#1C1C1E"/>
<path d="M54.3379 37.0033V8.43945H73.2501V13.4186H60.377V20.2248H71.9948V25.2039H60.377V37.0033H54.3379Z" fill="#1C1C1E"/>
<rect width="45" height="45.3" rx="7.2" fill="#6C5CE7"/>
<g clip-path="url(#clip0_1504_14240)">
<path d="M20.415 11.0996C20.5813 11.0996 20.7494 11.0996 20.9191 11.0996C21.4665 11.0996 22.0164 11.0996 22.5638 11.1047C22.9457 11.1047 23.3251 11.1047 23.7069 11.1047C24.7075 11.1047 25.7081 11.1073 26.7112 11.1098C27.7347 11.1124 28.7556 11.1124 29.7791 11.1149C31.7828 11.1175 33.789 11.1226 35.7927 11.1276C35.5966 11.9067 35.398 12.6832 35.1994 13.4598C35.1434 13.6787 35.09 13.8977 35.034 14.1243C34.5833 15.8708 34.1149 17.5537 32.5033 18.5644C30.9961 19.262 29.7282 19.4148 28.0784 19.3944C27.834 19.3944 27.5895 19.397 27.34 19.3995C26.3089 19.4071 25.2753 19.402 24.2441 19.3995C18.7168 19.3689 16.1989 19.7916 13.8973 22.0753C12.963 23.1854 11.9904 24.4201 11.0968 25.6397C11.0738 24.4634 11.1019 22.8926 11.2724 21.6934C11.3132 21.3777 11.3539 21.0595 11.3972 20.7336C11.8376 17.602 12.6727 14.9746 15.0125 12.8462C16.4306 11.731 18.2688 11.0945 20.415 11.0996Z" fill="white"/>
<path d="M20.053 23.5293C20.3212 23.5293 20.5927 23.5302 20.8677 23.5319C21.7206 23.537 22.5862 23.5166 23.4391 23.5268C24.0222 23.509 24.5925 23.5344 25.1729 23.537C26.6318 23.537 28.0066 23.5217 29.4247 23.537C29.2796 24.2269 29.1319 24.9831 28.9792 25.673C28.9384 25.8665 28.9002 26.06 28.857 26.2586C28.5158 27.7837 27.9506 28.8784 26.8456 30.0165C24.758 31.3327 22.4513 31.3531 20.0581 31.376C17.2499 31.4422 15.2717 32.1755 13.1305 34.0416C12.4889 34.6018 12.0434 34.9226 11.5851 35.4343C10.6584 36.3101 10.1543 37.2139 9.29883 38.0999C9.52797 33.7845 9.97096 29.1356 13.1305 25.8971C15.343 24.1022 17.2397 23.4886 20.0505 23.5319L20.053 23.5293Z" fill="white"/>
</g>
<defs>
<clipPath id="clip0_1504_14240">
<rect width="26.4908" height="27" fill="white" transform="translate(9.30078 11.0996)"/>
</clipPath>
</defs>
</svg>
