<svg width="72" height="73" viewBox="0 0 72 73" fill="none" xmlns="http://www.w3.org/2000/svg">
<ellipse cx="36" cy="36.1624" rx="36" ry="36.1624" fill="#6C5CE7"/>
<path d="M32.8311 47.1899C32.8311 46.8426 32.8311 46.6116 32.8311 46.3806C32.8325 38.1922 32.8457 30.0022 32.8281 21.8138C32.8252 20.1834 33.3862 18.8106 34.4277 17.607C35.5966 16.2547 37.1274 15.6088 38.8661 15.5941C43.1185 15.5543 47.3723 15.6029 51.6261 15.5911C52.174 15.5896 52.3717 15.7383 52.3322 16.3003C52.2824 16.9963 52.2809 17.7011 52.316 18.3986C52.3409 18.9048 52.152 19.0269 51.6715 19.0239C47.7209 19.0078 43.7688 19.0004 39.8182 19.0357C39.1386 19.0416 38.4135 19.1461 37.7953 19.4065C36.8359 19.8112 36.2807 20.5939 36.2822 21.7093C36.2866 26.0956 36.2792 30.4804 36.2748 34.8667C36.2705 38.7395 36.2514 42.6123 36.2675 46.4851C36.2705 47.0354 36.1254 47.2282 35.5659 47.2017C34.6899 47.159 33.8096 47.1899 32.8311 47.1899Z" fill="white"/>
<path d="M21.1548 48.648C30.0653 53.3403 38.9274 53.4271 47.8203 48.6921C48.2377 49.5087 48.6581 50.2562 48.9877 51.042C49.0507 51.1906 48.8061 51.5717 48.6083 51.7115C46.3716 53.2903 43.9737 54.5469 41.3092 55.2385C34.8376 56.9203 28.6092 56.3935 22.6972 53.1255C21.9458 52.7106 21.2251 52.2353 20.5161 51.7482C19.8277 51.2759 19.7925 51.0081 20.2056 50.2959C20.5191 49.7574 20.8267 49.2145 21.1533 48.6465L21.1548 48.648Z" fill="white"/>
<path d="M38.8151 30.1049C39.0949 30.0711 39.3204 30.0181 39.5475 30.0196C42.7979 30.0284 46.0498 30.0519 49.3002 30.0475C49.8158 30.0475 50.0004 30.2064 49.9667 30.7317C49.9242 31.4056 49.9272 32.0854 49.9653 32.7593C49.9931 33.2537 49.7851 33.4377 49.3281 33.4333C49.0029 33.4303 48.6777 33.4436 48.3525 33.445C45.4727 33.4524 42.5928 33.445 39.713 33.4774C39.048 33.4848 38.736 33.3361 38.799 32.5887C38.8678 31.7823 38.8151 30.9642 38.8151 30.1064V30.1049Z" fill="white"/>
<path d="M23.5684 31.6833C23.5596 30.2943 24.7578 29.1378 26.1919 29.1525C27.563 29.1657 28.6689 30.3605 28.6704 31.8305C28.6718 33.1444 27.5395 34.2922 26.2285 34.3054C24.6861 34.3201 23.5787 33.2298 23.5699 31.6833H23.5684Z" fill="white"/>
</svg>
