<svg width="45" height="45" viewBox="0 0 45 45" fill="none" xmlns="http://www.w3.org/2000/svg">
<rect width="44.702" height="45" rx="8.90367" fill="#6C5CE7"/>
<g clip-path="url(#clip0_1684_17379)">
<path d="M20.2771 11.0274C20.4423 11.0274 20.6092 11.0274 20.7778 11.0274C21.3216 11.0274 21.8679 11.0274 22.4116 11.0324C22.791 11.0324 23.1679 11.0324 23.5472 11.0324C24.5412 11.0324 25.5351 11.035 26.5316 11.0375C27.5483 11.04 28.5624 11.04 29.5791 11.0425C31.5695 11.0451 33.5625 11.0501 35.5529 11.0552C35.3582 11.8291 35.1609 12.6005 34.9636 13.3719C34.908 13.5894 34.8549 13.8069 34.7992 14.032C34.3516 15.7669 33.8862 17.4387 32.2853 18.4427C30.7881 19.1357 29.5286 19.2874 27.8897 19.2672C27.6469 19.2672 27.4041 19.2697 27.1563 19.2723C26.132 19.2799 25.1051 19.2748 24.0809 19.2723C18.5902 19.2419 16.0889 19.6617 13.8026 21.9304C12.8744 23.033 11.9083 24.2597 11.0205 25.4711C10.9978 24.3027 11.0256 22.7422 11.1951 21.551C11.2355 21.2374 11.276 20.9212 11.319 20.5975C11.7565 17.4867 12.5861 14.8767 14.9103 12.7623C16.319 11.6546 18.145 11.0223 20.2771 11.0274Z" fill="white"/>
<path d="M19.9193 23.374C20.1857 23.374 20.4555 23.3749 20.7286 23.3765C21.5758 23.3816 22.4357 23.3614 23.283 23.3715C23.8622 23.3538 24.4287 23.3791 25.0053 23.3816C26.4545 23.3816 27.8202 23.3664 29.2289 23.3816C29.0848 24.067 28.9381 24.8181 28.7863 25.5035C28.7459 25.6957 28.7079 25.8879 28.6649 26.0852C28.326 27.6001 27.7646 28.6877 26.6669 29.8182C24.5931 31.1257 22.3017 31.146 19.9243 31.1687C17.1347 31.2345 15.1696 31.9629 13.0426 33.8167C12.4053 34.3731 11.9627 34.6918 11.5075 35.2001C10.5869 36.0701 10.0861 36.968 9.23633 37.8481C9.46395 33.5613 9.90401 28.9431 13.0426 25.7261C15.2404 23.9431 17.1246 23.3335 19.9168 23.3765L19.9193 23.374Z" fill="white"/>
</g>
<defs>
<clipPath id="clip0_1684_17379">
<rect width="26.3154" height="26.8212" fill="white" transform="translate(9.23828 11.0273)"/>
</clipPath>
</defs>
</svg>
